<svg width="22" height="22" viewBox="0 0 22 22" fill="none" xmlns="http://www.w3.org/2000/svg">
<path d="M9.23998 9.95492C9.28581 9.65242 9.38665 9.38659 9.51498 9.16659C9.78998 8.65325 10.2575 8.38742 10.89 8.37825C11.3025 8.37825 11.6783 8.56159 11.9441 8.82742C12.2008 9.11159 12.375 9.50575 12.375 9.89992H14.025C14.0066 9.46909 13.9241 9.07492 13.75 8.70825C13.6125 8.35992 13.4016 8.04825 13.1266 7.79159C11.7975 6.56325 9.33165 6.73742 8.20414 8.13075C7.02165 9.66159 6.99414 12.3383 8.19498 13.8691C9.30414 15.2349 11.7333 15.4274 13.0533 14.2083C13.3375 13.9791 13.5666 13.6949 13.75 13.3649C13.8966 13.0349 13.9975 12.6866 14.0066 12.3108H12.375C12.375 12.5033 12.3108 12.6774 12.2283 12.8333C12.1458 13.0074 12.0358 13.1449 11.9166 13.2641C11.6141 13.5024 11.2566 13.6308 10.8716 13.6308C10.5416 13.6216 10.2666 13.5574 10.0558 13.4199C9.81817 13.2863 9.62887 13.081 9.51498 12.8333C9.05665 12.0083 9.12998 10.8624 9.23998 9.95492ZM11 1.83325C5.95831 1.83325 1.83331 5.95825 1.83331 10.9999C2.31915 23.1641 19.7083 23.1549 20.1666 10.9999C20.1666 5.95825 16.0416 1.83325 11 1.83325ZM11 18.3333C6.95748 18.3333 3.66665 15.0424 3.66665 10.9999C4.06998 1.27409 17.93 1.27409 18.3333 10.9999C18.3333 15.0424 15.0425 18.3333 11 18.3333Z" fill="white" fill-opacity="0.7"/>
</svg>
