<svg width="36" height="35" viewBox="0 0 36 35" fill="none" xmlns="http://www.w3.org/2000/svg">
<rect x="0.5" width="35" height="35" rx="17.5" fill="#1B5CFE"/>
<path d="M14.7975 26.7311C22.5588 26.7311 26.8025 20.2998 26.8025 14.7261C26.8025 14.5423 26.8025 14.3586 26.7938 14.1836C27.6163 13.5886 28.3338 12.8448 28.9025 11.9961C28.15 12.3286 27.3363 12.5561 26.4788 12.6611C27.3538 12.1361 28.0188 11.3136 28.3338 10.3248C27.52 10.8061 26.6188 11.1561 25.6563 11.3486C24.8863 10.5261 23.7925 10.0186 22.5763 10.0186C20.2488 10.0186 18.3588 11.9086 18.3588 14.2361C18.3588 14.5686 18.3938 14.8923 18.4725 15.1986C14.9638 15.0236 11.8575 13.3436 9.775 10.7886C9.41625 11.4098 9.20626 12.1361 9.20626 12.9061C9.20626 14.3673 9.95 15.6623 11.0875 16.4148C10.3963 16.3973 9.74875 16.2048 9.18 15.8898C9.18 15.9073 9.18 15.9248 9.18 15.9423C9.18 17.9898 10.6325 19.6873 12.5663 20.0811C12.2163 20.1773 11.84 20.2298 11.455 20.2298C11.1838 20.2298 10.9213 20.2036 10.6588 20.1511C11.1925 21.8311 12.75 23.0473 14.5963 23.0823C13.1525 24.2111 11.3325 24.8848 9.355 24.8848C9.01375 24.8848 8.68125 24.8673 8.34875 24.8236C10.195 26.0311 12.4175 26.7311 14.7975 26.7311Z" fill="white"/>
</svg>
