<svg width="36" height="35" viewBox="0 0 36 35" fill="none" xmlns="http://www.w3.org/2000/svg">
<rect x="0.5" width="35" height="35" rx="17.5" fill="#1B5CFE"/>
<path d="M29.9861 11.4891C29.6978 10.4182 28.8534 9.5738 27.7825 9.28547C25.8259 8.75 17.9999 8.75 17.9999 8.75C17.9999 8.75 10.1738 8.75 8.21731 9.26487C7.16697 9.5532 6.30198 10.4182 6.01365 11.4891C5.49878 13.4456 5.49878 17.5028 5.49878 17.5028C5.49878 17.5028 5.49878 21.5806 6.01365 23.5165C6.30198 24.5875 7.14637 25.4319 8.21731 25.7202C10.1944 26.2557 17.9999 26.2557 17.9999 26.2557C17.9999 26.2557 25.8259 26.2557 27.7825 25.7408C28.8534 25.4525 29.6978 24.6081 29.9861 23.5371C30.501 21.5806 30.501 17.5234 30.501 17.5234C30.501 17.5234 30.5216 13.4456 29.9861 11.4891Z" fill="white"/>
<path d="M15.5079 21.2512L22.0159 17.5029L15.5079 13.7546V21.2512Z" fill="#1B5CFE"/>
</svg>
